<?xml version="1.0" standalone="no"?>
<!DOCTYPE svg PUBLIC "-//W3C//DTD SVG 20010904//EN"
 "http://www.w3.org/TR/2001/REC-SVG-20010904/DTD/svg10.dtd">
<svg version="1.0" xmlns="http://www.w3.org/2000/svg"
 width="512.000000pt" height="512.000000pt" viewBox="0 0 512.000000 512.000000"
 preserveAspectRatio="xMidYMid meet">
<metadata>
Created by potrace 1.11, written by Peter Selinger 2001-2013
</metadata>
<g transform="translate(0.000000,512.000000) scale(0.100000,-0.100000)"
fill="#000000" stroke="none">
<path d="M0 2560 l0 -2560 2560 0 2560 0 0 2560 0 2560 -2560 0 -2560 0 0
-2560z m2881 1551 c625 -135 1094 -605 1231 -1235 19 -87 22 -132 22 -316 0
-184 -3 -229 -22 -316 -137 -632 -604 -1099 -1236 -1236 -87 -19 -132 -22
-316 -22 -184 0 -229 3 -316 22 -632 137 -1099 604 -1236 1236 -19 87 -22 132
-22 316 0 184 3 229 22 316 143 658 650 1142 1308 1249 131 21 437 13 565 -14z"/>
<path d="M1680 2781 l0 -720 216 -243 c119 -134 220 -247 225 -252 5 -5 14 -4
23 4 14 11 16 79 18 528 l3 516 393 -527 394 -527 234 0 234 0 0 623 0 623
-222 251 c-123 139 -229 252 -235 252 -10 1 -13 -96 -13 -454 0 -250 -3 -455
-7 -455 -5 0 -183 248 -398 550 l-390 550 -237 0 -238 0 0 -719z"/>
<path d="M2965 3491 c-6 -11 425 -499 443 -500 9 -1 12 56 12 254 l0 255 -224
0 c-127 0 -227 -4 -231 -9z"/>
</g>
</svg>
