<svg id="Layer_1" data-name="Layer 1" xmlns="http://www.w3.org/2000/svg" viewBox="0 0 279.98 41.73">
  <title>logo_telefe_noticias</title>
  <g>
    <circle cx="20.86" cy="20.86" r="20.86" style="fill: #fff"/>
    <circle cx="105.5" cy="20.86" r="20.86" style="fill: #fff"/>
    <path d="M63.2,0A20.86,20.86,0,1,0,84.06,20.86,20.86,20.86,0,0,0,63.2,0ZM74.49,33.77a0.14,0.14,0,0,1-.14.14h-6v0L58.1,20.21a0.14,0.14,0,0,0-.25.08V33.67a0.25,0.25,0,0,1-.43.16L51.9,27.64a0.88,0.88,0,0,1-.22-0.58V8.7a0.14,0.14,0,0,1,.14-0.14h6a0.14,0.14,0,0,1,.11.06L68.07,23a0.14,0.14,0,0,0,.26-0.08V11.15a0.14,0.14,0,0,1,.25-0.09l5.88,6.61a0.14,0.14,0,0,1,0,.09v16Zm0-18.79a0.18,0.18,0,0,1-.31.12L68.59,8.86a0.18,0.18,0,0,1,.13-0.29h5.59a0.18,0.18,0,0,1,.18.18V15Z" style="fill: #fff"/>
  </g>
  <g>
    <path d="M189,22.22a10.85,10.85,0,1,1-10.85-10.85A10.84,10.84,0,0,1,189,22.22Zm-5.15,0a5.7,5.7,0,1,0-5.7,5.7A5.69,5.69,0,0,0,183.81,22.22Z" style="fill: #fff"/>
    <path d="M206.69,11.67a0.1,0.1,0,0,1,.1.1v4.94a0.1,0.1,0,0,1-.1.1h-6.46a0.1,0.1,0,0,0-.1.1V32.76a0.1,0.1,0,0,1-.1.1h-4.94a0.1,0.1,0,0,1-.1-0.1V16.93a0.1,0.1,0,0,0-.1-0.1h-6.46a0.1,0.1,0,0,1-.1-0.1V11.77a0.1,0.1,0,0,1,.1-0.1h18.28Z" style="fill: #fff"/>
    <path d="M208.42,11.77a0.1,0.1,0,0,1,.1-0.1h4.94a0.1,0.1,0,0,1,.1.1V32.7a0.1,0.1,0,0,1-.1.1h-4.94a0.1,0.1,0,0,1-.1-0.1V11.77Z" style="fill: #fff"/>
    <path d="M220.18,22.25a5.68,5.68,0,0,0,9.73,3.94l3.7,3.58a10.81,10.81,0,1,1,.45-14.55l-3.91,3.36A5.66,5.66,0,0,0,220.18,22.25Z" style="fill: #fff"/>
    <path d="M235.07,11.77a0.1,0.1,0,0,1,.1-0.1h4.94a0.1,0.1,0,0,1,.1.1V32.7a0.1,0.1,0,0,1-.1.1h-4.94a0.1,0.1,0,0,1-.1-0.1V11.77Z" style="fill: #fff"/>
    <path d="M255.78,30.35a0.16,0.16,0,0,0-.14-0.1H247.2a0.16,0.16,0,0,0-.14.1l-0.93,2.41a0.16,0.16,0,0,1-.14.1h-5.37a0.07,0.07,0,0,1-.07-0.1l8.08-21a0.16,0.16,0,0,1,.14-0.1H254a0.16,0.16,0,0,1,.14.1l8.11,21a0.07,0.07,0,0,1-.07.1h-5.37a0.16,0.16,0,0,1-.14-0.1Zm-2.11-5.25a0.07,0.07,0,0,0,.07-0.1l-2.29-5.93c0-.05-0.05-0.05-0.07,0L249.11,25a0.07,0.07,0,0,0,.07.1h4.49Z" style="fill: #fff"/>
    <path d="M268.76,17.7l0.09,0.21a2.91,2.91,0,0,0,1.79,1.18c1.61,0.52,3.3.88,4.88,1.55a10.9,10.9,0,0,1,1.85,1,6.1,6.1,0,0,1,2,2.21,5.91,5.91,0,0,1-.06,5.34,8,8,0,0,1-4,3.64,11.85,11.85,0,0,1-5.43.79,13.46,13.46,0,0,1-7.56-2.84,0.69,0.69,0,0,1,0-1l3.12-2.89a0.69,0.69,0,0,1,.92,0,8.35,8.35,0,0,0,5.58,2c1.21,0,2.67-.58,2.46-2a1.4,1.4,0,0,0-.09-0.27A3.16,3.16,0,0,0,272.1,25c-1.33-.45-2.73-0.73-4.06-1.18a8.17,8.17,0,0,1-3.58-2.15,5.8,5.8,0,0,1-1.52-4,6,6,0,0,1,1.61-4,8.27,8.27,0,0,1,4.15-2.36,12.83,12.83,0,0,1,6-.18,13,13,0,0,1,4.94,2.08,0.69,0.69,0,0,1,.08,1.07l-1.14,1.1c-0.61.61-1.25,1.21-1.89,1.82a0.68,0.68,0,0,1-.93,0,6.06,6.06,0,0,0-5.4-1.39C269.46,16,268.46,16.64,268.76,17.7Z" style="fill: #fff"/>
    <path d="M161,12.5h4.55a0.2,0.2,0,0,1,.2.2V32.58a0.2,0.2,0,0,1-.2.2h-5.11a0.2,0.2,0,0,1-.16-0.09l-7.55-11.46a0.2,0.2,0,0,0-.36.11V32.52a0.2,0.2,0,0,1-.2.2h-4.55a0.2,0.2,0,0,1-.2-0.2V12.61a0.2,0.2,0,0,1,.2-0.2h5.14a0.2,0.2,0,0,1,.16.09l7.52,11.4a0.2,0.2,0,0,0,.36-0.11V12.7A0.2,0.2,0,0,1,161,12.5Z" style="fill: #fff"/>
  </g>
</svg>
